P3
# Created by GIMP version 2.10.22 PNM plug-in
8 8
255
0
0
0
0
0
0
0
0
0
37
137
0
0
0
0
0
0
0
0
0
0
0
0
0
0
0
0
0
0
0
0
0
0
255
0
0
0
0
0
0
0
0
0
0
0
0
0
0
0
0
0
0
0
0
37
137
0
37
137
0
37
137
0
0
0
0
0
0
0
0
0
0
0
0
0
0
0
0
255
0
0
37
137
0
37
137
0
0
0
0
0
0
0
0
0
0
0
0
0
37
137
0
37
137
0
37
137
0
255
0
0
37
137
0
0
0
0
0
0
0
0
0
0
255
0
0
37
137
0
37
137
0
37
137
0
37
137
0
0
0
0
0
0
0
37
137
0
37
137
0
37
137
0
37
137
0
37
137
0
255
0
0
37
137
0
0
0
0
0
0
0
0
0
0
97
56
0
97
56
0
97
56
0
0
0
0
0
0
0
0
0
0
