P3
# Created by GIMP version 2.10.6 PNM plug-in
8 8
255
74
110
169
74
110
169
74
110
169
74
110
169
74
110
169
74
110
169
74
110
169
74
110
169
74
110
169
74
110
169
74
110
169
162
176
205
246
248
251
173
184
209
74
110
169
74
110
169
74
110
169
74
110
169
74
110
169
210
217
231
162
176
205
74
110
169
74
110
169
74
110
169
74
110
169
74
110
169
162
176
204
246
248
250
236
239
245
158
173
203
74
110
169
74
110
169
74
110
169
74
110
169
74
110
169
218
224
236
173
187
212
74
110
169
74
110
169
74
110
169
74
110
169
74
110
169
74
110
169
211
218
231
157
172
203
74
110
169
74
110
169
74
110
169
74
110
169
74
110
169
74
110
169
211
218
231
156
172
203
74
110
169
74
110
169
74
110
169
74
110
169
74
110
169
74
110
169
74
110
169
74
110
169
74
110
169
74
110
169
74
110
169
