P3
# Created by GIMP version 2.10.6 PNM plug-in
8 8
255
52
63
102
71
89
147
71
89
147
71
89
147
71
89
147
71
89
147
71
89
147
52
63
102
71
89
147
71
89
147
71
89
147
71
89
147
71
89
147
71
89
147
71
89
147
71
89
147
71
89
147
71
89
147
71
89
147
71
89
147
246
248
250
246
248
250
246
248
250
71
89
147
71
89
147
71
89
147
71
89
147
71
89
147
246
248
250
246
248
250
71
89
147
71
89
147
71
89
147
71
89
147
71
89
147
246
248
250
246
248
250
246
248
250
246
248
250
71
89
147
71
89
147
71
89
147
71
89
147
71
89
147
246
248
250
246
248
250
71
89
147
71
89
147
71
89
147
71
89
147
71
89
147
71
89
147
246
248
250
246
248
250
71
89
147
71
89
147
52
63
102
71
89
147
71
89
147
71
89
147
246
248
250
246
248
250
71
89
147
52
63
102
