P3
# Created by GIMP version 2.10.6 PNM plug-in
8 8
255
147
71
193
104
116
255
96
81
203
112
71
202
127
62
201
142
55
198
159
51
193
171
49
189
142
100
255
173
158
216
210
192
226
216
194
224
220
193
224
221
190
225
207
152
209
191
52
178
243
87
255
223
191
216
255
81
205
217
167
200
222
167
199
227
166
199
232
191
217
200
55
171
255
79
138
244
196
202
243
170
178
242
149
158
238
148
162
234
168
189
237
194
211
203
57
165
248
80
78
253
198
195
253
173
169
250
151
150
246
150
154
241
170
180
241
195
206
211
61
150
254
101
67
255
203
193
255
121
69
255
182
168
254
174
168
244
78
86
244
193
201
218
65
136
247
131
95
255
197
159
255
216
194
255
210
196
255
202
195
253
195
193
243
158
166
220
66
133
203
107
163
246
187
103
254
204
85
254
175
80
254
136
73
253
94
69
236
75
107
193
57
168
