P3
# Created by GIMP version 2.10.22 PNM plug-in
8 8
255
0
0
0
0
0
0
0
0
0
178
169
125
178
169
125
0
0
0
0
0
0
0
0
0
0
0
0
0
0
0
197
186
138
219
188
67
219
188
67
197
186
138
0
0
0
0
0
0
0
0
0
178
169
125
219
188
67
228
217
181
237
230
207
206
187
118
144
136
100
0
0
0
0
0
0
178
169
125
212
187
99
228
217
181
237
230
207
211
187
101
144
136
100
0
0
0
0
0
0
0
0
0
197
186
138
215
187
86
224
188
21
197
186
138
0
0
0
0
0
0
0
0
0
0
0
0
0
0
0
201
130
64
201
130
64
0
0
0
0
0
0
0
0
0
0
0
0
0
0
0
0
0
0
201
130
64
201
130
64
0
0
0
0
0
0
0
0
0
0
0
0
0
0
0
0
0
0
0
0
0
0
0
0
0
0
0
0
0
0
0
0
0
