P3
# Created by GIMP version 2.10.22 PNM plug-in
8 8
255
0
0
0
0
0
0
0
0
0
178
169
125
178
169
125
0
0
0
0
0
0
254
0
0
0
0
0
0
0
0
197
186
138
219
188
67
219
188
67
197
186
138
254
0
0
78
0
0
0
0
0
178
169
125
219
188
67
228
217
181
244
184
166
254
0
0
144
136
100
0
0
0
0
0
0
178
169
125
212
187
99
228
217
181
254
0
0
211
187
101
144
136
100
0
0
0
0
0
0
0
0
0
221
149
110
254
0
0
224
188
21
197
186
138
0
0
0
0
0
0
0
0
0
0
0
0
254
0
0
201
130
64
201
130
64
0
0
0
0
0
0
0
0
0
0
0
0
254
0
0
0
0
0
201
130
64
201
130
64
0
0
0
0
0
0
0
0
0
254
0
0
0
0
0
0
0
0
0
0
0
0
0
0
0
0
0
0
0
0
0
0
0
