P3
# Created by GIMP version 2.10.22 PNM plug-in
8 8
255
255
255
255
255
255
255
255
255
255
255
255
255
255
255
255
255
255
255
255
255
255
255
255
255
255
255
255
255
192
5
255
192
0
255
192
0
255
192
0
255
192
0
255
192
0
255
255
255
255
192
0
255
255
255
255
192
0
255
192
0
255
192
0
255
192
0
255
255
255
255
192
0
255
192
0
255
193
12
255
255
255
255
193
0
255
193
1
255
255
255
255
192
0
255
192
0
255
192
0
255
192
0
255
192
2
255
255
255
255
255
255
255
192
0
255
192
0
255
192
0
255
192
0
255
192
0
255
192
0
255
192
0
255
192
0
255
192
0
255
192
0
253
191
1
255
192
0
255
192
0
255
192
0
255
192
0
255
192
0
255
192
0
255
192
0
254
191
1
255
192
0
255
192
0
255
192
0
255
192
0
255
192
0
255
192
0
255
192
0
255
192
0
