P3
# Created by GIMP version 2.10.22 PNM plug-in
8 8
255
1
1
1
0
0
0
0
0
0
0
0
0
0
0
0
0
0
0
0
0
0
0
0
0
142
158
34
39
96
182
39
96
182
39
96
182
39
96
182
0
0
0
216
240
57
0
0
0
216
240
57
227
198
26
0
0
0
0
0
0
39
96
182
216
240
57
223
216
41
149
130
13
216
240
57
0
0
0
39
96
182
39
96
182
0
0
0
0
0
0
216
240
57
0
0
0
0
0
0
39
96
182
0
0
0
0
0
0
0
0
0
0
0
0
0
0
0
0
0
0
0
0
0
39
96
182
39
96
182
39
96
182
39
96
182
0
0
0
216
240
57
0
0
0
149
130
13
0
0
0
0
0
0
0
0
0
0
0
0
109
98
64
220
226
48
216
240
57
223
216
41
216
240
57
0
0
0
0
0
0
0
0
0
0
0
0
216
240
57
0
0
0
