P3
# Created by GIMP version 2.10.22 PNM plug-in
8 8
255
254
255
254
254
255
253
255
255
255
255
255
255
255
255
255
255
255
255
255
255
255
255
255
255
255
255
255
71
216
31
0
0
0
0
0
0
0
0
0
0
0
0
0
0
0
255
255
255
255
255
255
255
255
255
255
255
255
255
255
255
255
255
255
255
255
255
255
255
255
255
255
255
255
255
255
255
255
255
49
73
195
49
73
195
49
73
195
49
73
195
255
255
255
255
255
255
255
255
255
255
255
255
49
73
195
49
73
195
49
73
195
49
73
195
255
255
255
255
255
255
255
255
255
255
255
255
49
73
195
49
73
195
49
73
195
49
73
195
255
255
255
255
255
255
255
255
255
255
255
255
49
73
195
49
73
195
49
73
195
49
73
195
255
255
255
255
255
255
255
255
255
255
255
255
250
250
251
255
255
255
255
255
255
255
255
255
255
255
255
255
255
255
