P3
# Created by GIMP version 2.10.6 PNM plug-in
8 8
255
67
214
43
63
209
40
61
206
39
57
202
37
53
197
34
51
192
32
47
188
30
43
184
27
63
210
41
255
255
255
255
255
255
54
197
34
50
193
32
47
188
30
44
184
27
40
179
25
60
204
39
255
255
255
54
197
34
50
193
32
47
188
29
43
184
27
40
179
25
36
174
23
57
202
36
53
197
34
255
255
255
47
189
29
43
184
27
40
179
24
37
174
23
33
170
20
54
197
34
51
193
32
47
188
29
255
255
255
40
179
25
36
175
22
34
170
20
31
167
19
51
192
32
46
188
29
43
184
27
40
179
25
255
255
255
33
170
20
255
255
255
28
163
16
47
188
30
44
183
27
40
180
25
37
174
22
34
170
20
255
255
255
255
255
255
24
158
13
43
184
27
40
180
24
37
174
23
33
171
20
30
166
18
28
162
16
24
159
14
21
154
11
