P3
# Created by GIMP version 2.10.22 PNM plug-in
8 8
255
1
1
1
255
255
255
0
0
0
0
0
0
0
0
0
255
255
255
0
0
0
0
0
0
1
1
1
255
255
255
254
0
0
254
0
0
254
0
0
255
255
255
0
0
0
0
0
0
0
0
0
255
255
255
254
0
0
254
0
0
254
0
0
255
255
255
0
0
0
0
0
0
0
0
0
1
1
1
255
255
255
255
255
255
255
255
255
0
0
0
0
0
0
0
0
0
0
0
0
0
0
0
1
1
1
255
255
255
0
0
0
0
0
0
0
0
0
0
0
0
0
0
0
0
0
0
0
0
0
241
241
241
1
1
1
0
0
0
0
0
0
0
0
0
0
0
0
255
255
255
255
255
255
255
255
255
255
255
255
255
255
255
0
0
0
0
0
0
0
0
0
0
0
0
0
0
0
0
0
0
0
0
0
0
0
0
0
0
0
0
0
0
